<svg width="54" height="53" viewBox="0 0 54 53" fill="none" xmlns="http://www.w3.org/2000/svg">
<path d="M1.84987 34.0763C3.50468 39.4861 6.8526 44.2218 11.4008 47.5862C15.949 50.9506 21.4571 52.7659 27.1144 52.765C41.7039 52.765 53.5299 40.9522 53.5299 26.3825C53.5299 11.8128 41.7039 1.97797e-06 27.1177 1.97797e-06C20.4207 -0.00258873 13.973 2.53984 9.08018 7.11248C4.18731 11.6851 1.21492 17.9462 0.764893 24.6281L0.774786 24.6478L14.9686 30.4817C16.2487 29.6341 17.7649 29.215 19.2986 29.2846L25.7623 19.9056L25.759 19.7737C25.7616 17.1135 26.8193 14.5631 28.7 12.6817C30.5807 10.8004 33.1308 9.74193 35.7909 9.73844C38.4511 9.74193 41.0012 10.8004 42.8819 12.6817C44.7626 14.5631 45.8203 17.1135 45.8229 19.7737C45.8219 21.1104 45.5542 22.4334 45.0354 23.6654C44.5167 24.8973 43.7574 26.0134 42.802 26.9482C41.8466 27.8831 40.7143 28.6179 39.4713 29.1097C38.2284 29.6014 36.8998 29.8403 35.5634 29.8122L26.3163 36.4078C26.3477 37.6296 26.0731 38.8398 25.5176 39.9283C24.9621 41.0169 24.1432 41.9493 23.1355 42.6408C22.1278 43.3323 20.9632 43.7608 19.7477 43.8875C18.5321 44.0142 17.3042 43.835 16.1756 43.3662C15.0923 42.9148 14.1336 42.2093 13.3805 41.3093C12.6275 40.4092 12.1021 39.3411 11.8488 38.1952L1.85317 34.0763H1.84987Z" fill="url(#paint0_linear_13_16)"/>
<defs>
<linearGradient id="paint0_linear_13_16" x1="27.1474" y1="0" x2="27.1474" y2="52.765" gradientUnits="userSpaceOnUse">
<stop offset="0.135417" stop-color="#13192E"/>
<stop offset="1" stop-color="#0073A3"/>
</linearGradient>
</defs>
</svg>
